HIERARCHY
ROOT Hips
{
	OFFSET	0.00	0.00	0.00
	CHANNELS 6 Xposition Yposition Zposition Zrotation Xrotation Yrotation
	JOINT LeftUpLeg
	{
		OFFSET	 0.126116	-0.014019	-0.065224
		CHANNELS 3 Zrotation Xrotation Yrotation
		JOINT LeftLeg
		{
			OFFSET	 0.000000	 0.000000	 0.569914
			CHANNELS 3 Zrotation Xrotation Yrotation
			JOINT LeftFoot
			{
				OFFSET	 0.000000	 0.000000	 0.544423
				CHANNELS 3 Zrotation Xrotation Yrotation
				JOINT LeftToeBase
				{
					OFFSET	 0.000000	 0.000000	 0.207117
					CHANNELS 3 Zrotation Xrotation Yrotation
					End Site
					{
						OFFSET	 0.000000	 0.000000	 0.207117
					}
				}
			}
		}
	}
	JOINT RightUpLeg
	{
		OFFSET	-0.124023	-0.008373	-0.065224
		CHANNELS 3 Zrotation Xrotation Yrotation
		JOINT RightLeg
		{
			OFFSET	 0.000000	 0.000000	 0.570047
			CHANNELS 3 Zrotation Xrotation Yrotation
			JOINT RightFoot
			{
				OFFSET	 0.000000	 0.000000	 0.544354
				CHANNELS 3 Zrotation Xrotation Yrotation
				JOINT RightToeBase
				{
					OFFSET	 0.000000	 0.000000	 0.207540
					CHANNELS 3 Zrotation Xrotation Yrotation
					End Site
					{
						OFFSET	 0.000000	 0.000000	 0.207540
					}
				}
			}
		}
	}
	JOINT Spine
	{
		OFFSET	 0.000184	-0.007763	 0.117403
		CHANNELS 3 Zrotation Xrotation Yrotation
		JOINT Spine1
		{
			OFFSET	 0.000000	 0.000000	 0.137269
			CHANNELS 3 Zrotation Xrotation Yrotation
			JOINT Spine2
			{
				OFFSET	 0.000000	 0.000000	 0.156879
				CHANNELS 3 Zrotation Xrotation Yrotation
				JOINT LeftShoulder
				{
					OFFSET	 0.080501	-0.002496	 0.160144
					CHANNELS 3 Zrotation Xrotation Yrotation
					JOINT LeftArm
					{
						OFFSET	 0.000000	 0.000000	 0.164363
						CHANNELS 3 Zrotation Xrotation Yrotation
						JOINT LeftForeArm
						{
							OFFSET	 0.000000	 0.000000	 0.364576
							CHANNELS 3 Zrotation Xrotation Yrotation
							JOINT LeftHand
							{
								OFFSET	 0.000000	 0.000000	 0.360812
								CHANNELS 3 Zrotation Xrotation Yrotation
								JOINT LeftHandIndex1
								{
									OFFSET	 0.000000	 0.000000	 0.086006
									CHANNELS 3 Zrotation Xrotation Yrotation
									JOINT LeftHandIndex2
									{
										OFFSET	 0.000000	 0.000000	 0.047237
										CHANNELS 3 Zrotation Xrotation Yrotation
										JOINT LeftHandIndex3
										{
											OFFSET	-0.004284	-0.000551	 0.038165
											CHANNELS 3 Zrotation Xrotation Yrotation
											End Site
											{
												OFFSET	-0.004284	-0.000551	 0.038165
											}
										}
									}
								}
							}
						}
					}
				}
				JOINT Neck
				{
					OFFSET	 0.000000	 0.000000	 0.176489
					CHANNELS 3 Zrotation Xrotation Yrotation
					JOINT Head
					{
						OFFSET	 0.000000	-0.001747	 0.077940
						CHANNELS 3 Zrotation Xrotation Yrotation
						End Site
						{
							OFFSET	 0.000000	-0.001747	 0.077940
						}
					}
				}
				JOINT RightShoulder
				{
					OFFSET	-0.080363	 0.000306	 0.159706
					CHANNELS 3 Zrotation Xrotation Yrotation
					JOINT RightArm
					{
						OFFSET	 0.000000	 0.000000	 0.164196
						CHANNELS 3 Zrotation Xrotation Yrotation
						JOINT RightForeArm
						{
							OFFSET	 0.000000	 0.000000	 0.365611
							CHANNELS 3 Zrotation Xrotation Yrotation
							JOINT RightHand
							{
								OFFSET	 0.000000	 0.000000	 0.360648
								CHANNELS 3 Zrotation Xrotation Yrotation
								JOINT RightHandIndex1
								{
									OFFSET	 0.000000	 0.000000	 0.069977
									CHANNELS 3 Zrotation Xrotation Yrotation
									JOINT RightHandIndex2
									{
										OFFSET	 0.000000	 0.000000	 0.052305
										CHANNELS 3 Zrotation Xrotation Yrotation
										JOINT RightHandIndex3
										{
											OFFSET	 0.009002	-0.000782	 0.042196
											CHANNELS 3 Zrotation Xrotation Yrotation
											End Site
											{
												OFFSET	 0.009002	-0.000782	 0.042196
											}
										}
									}
								}
							}
						}
					}
				}
			}
		}
	}
}
MOTION
Frames:    5
Frame Time: 0.03333334
-0.716214	-1.662342	 1.273525	 179.759800	 0.593678	 1.585383	-8.798820	-2.845547	 177.634400	 6.147172	-13.500280	 1.902778	-34.916180	 71.577840	 15.782810	-2.385833	 28.452760	 0.000004	-1.266265	-1.473938	 178.870100	-19.747970	-9.477030	-1.468149	 37.174480	 69.375750	-14.953790	 2.384659	 28.388700	-0.000001	-5.380627	-0.427491	-2.326496	-5.075841	 14.628710	-2.897699	 12.788020	-18.833910	 9.552102	-91.776090	 78.527360	 179.999900	-7.943992	-7.817236	-0.831584	-5.980399	-5.358621	-30.333850	 7.580894	-1.169411	-5.638651	-4.131196	 21.524690	 0.986298	-5.167839	 0.733520	 3.519257	-1.378229	 35.397820	-2.634230	 0.000022	-3.783157	-0.089647	-13.889650	 9.030262	 1.102199	 89.782160	 78.203870	 180.000000	 5.842649	-1.903548	-2.279926	 6.979448	-3.682233	 32.088680	 0.576580	-6.134591	 20.131620	 5.715225	 19.176060	-3.692089	 5.027514	 0.245388	-9.378011	-2.350882	 35.473990	 5.254307
-0.716591	-1.656782	 1.274646	-176.506000	 6.083121	-2.159941	-4.128660	-8.198371	-179.654800	-0.594589	-12.657820	 0.297524	-20.075380	 54.774560	 10.279350	-2.385833	 28.452760	 0.000004	-0.487788	-11.554780	-177.569800	-5.161394	-17.999090	 1.778739	-1.256680	 82.754890	 11.414010	 2.384659	 28.388700	-0.000001	-10.941450	 6.572098	 4.216406	-5.899004	-8.956989	-15.482600	 13.461990	-8.340619	 16.263210	-91.776250	 78.527430	-180.000000	-37.467660	 5.016561	 2.086986	-8.742828	-6.607824	-46.223070	 7.621764	-3.319058	-4.159088	-4.131196	 21.524690	 0.986298	-5.167839	 0.733520	 3.519257	-1.378229	 35.397820	-2.634230	 1.538859	 8.105929	 0.773218	-12.671750	-9.481874	-4.487468	 89.782140	 78.203930	 180.000000	-4.747953	 3.722242	-9.171503	-1.848417	-14.793990	 44.334230	-19.154460	 43.379510	 80.001190	 5.715225	 19.176060	-3.692089	 5.027514	 0.245388	-9.378011	-2.350882	 35.473990	 5.254307
-0.713443	-1.652420	 1.273610	-176.339800	 6.074970	-2.563848	-4.014709	-9.119979	-179.770500	 0.595870	-15.931630	 0.699823	-22.891480	 54.926890	 12.836900	-2.385833	 28.452760	 0.000004	 1.694366	-12.704000	-176.849700	-6.363952	-19.778980	 1.537920	 9.741799	 86.122680	 1.419075	 2.384659	 28.388700	-0.000001	-12.030430	 6.017087	 4.518711	-6.836547	-6.745131	-15.709310	 13.780680	-9.252533	 16.295150	-91.776180	 78.527360	 180.000000	-34.969270	 8.232736	 8.128313	-10.447280	-7.202219	-57.406960	 7.149724	-3.603470	-3.992471	-4.131196	 21.524690	 0.986298	-5.167839	 0.733520	 3.519257	-1.378229	 35.397820	-2.634230	 1.397286	 7.967423	 1.199819	-12.499410	-8.911957	-4.260668	 89.782150	 78.203900	 179.999900	-5.928936	 7.082581	-11.749080	 0.538250	-16.495410	 52.605520	-16.052790	 42.480320	 72.926940	 5.715225	 19.176060	-3.692089	 5.027514	 0.245388	-9.378011	-2.350882	 35.473990	 5.254307
-0.703039	-1.634938	 1.270789	-176.213300	 6.453702	-2.910329	-6.137799	-10.765600	 178.547300	 3.881917	-24.496030	 2.425910	-31.777450	 55.469250	 21.595530	-2.385833	 28.452760	 0.000004	 3.263586	-17.925260	-175.233000	-6.939776	-25.963170	 1.736143	 38.978290	 83.357810	-27.808570	 2.384659	 28.388700	-0.000001	-15.998590	 3.821341	 4.218627	-10.362790	 3.213296	-17.799990	 16.142450	-14.063820	 19.336710	-91.776240	 78.527430	-179.999900	-25.439370	 21.644300	 18.573130	-14.040230	-6.954985	-81.978330	 6.109747	-4.173638	-3.652825	-4.131196	 21.524690	 0.986298	-5.167839	 0.733520	 3.519257	-1.378229	 35.397820	-2.634230	 1.662259	 8.188271	 1.161687	-12.359120	-9.380183	-4.342772	 89.782160	 78.203900	 179.999900	-10.491800	 22.685220	-14.792770	 6.704086	-19.524660	 72.437920	-16.812870	 34.918320	 59.347150	 5.715225	 19.176060	-3.692089	 5.027514	 0.245388	-9.378011	-2.350882	 35.473990	 5.254307
-0.682887	-1.597636	 1.267265	-176.370900	 9.041316	-1.226148	-10.784950	-10.527430	 173.104300	 2.540540	-32.691980	 2.430114	-33.545310	 51.188210	 29.182590	-2.385833	 28.452760	 0.000004	 3.670113	-27.274630	-173.847500	-7.182694	-31.401490	 1.938972	 31.008740	 69.769350	-22.683980	 2.384659	 28.388700	-0.000001	-23.883310	 0.414905	-3.276480	-18.447570	 18.019660	-12.075040	 19.655020	-22.618370	 20.606770	-91.776150	 78.527360	 180.000000	-1.937847	 39.196750	-8.557388	-12.733680	-6.117610	-69.739900	 5.766434	-4.550679	-3.558122	-4.131196	 21.524690	 0.986298	-5.167839	 0.733520	 3.519257	-1.378229	 35.397820	-2.634230	 2.270469	 8.447902	 0.171347	-12.335130	-9.949834	-3.464435	 89.782090	 78.203870	-180.000000	-19.312770	 53.096020	-0.763104	 3.904243	-19.284080	 65.036010	-44.495690	 11.354170	 57.932240	 5.715225	 19.176060	-3.692089	 5.027514	 0.245388	-9.378011	-2.350882	 35.473990	 5.254307
